<!--?xml version="1.0" encoding="utf-8"?-->
<!-- Generator: Adobe Illustrator 15.0.0, SVG Export Plug-In . SVG Version: 6.00 Build 0)  -->

<svg xmlns="http://www.w3.org/2000/svg" xmlns:xlink="http://www.w3.org/1999/xlink" width="500px" height="500px" viewBox="0 0 500 500">
<path fill-rule="evenodd" clip-rule="evenodd" d="M405,105c-2.155,5.727-8.844,0.798-15,2C390.672,102.68,402.501,101.092,405,105z" id="path-0" style="position: relative;"></path>
<path fill-rule="evenodd" clip-rule="evenodd" fill="#FFFFFF" d="M389,114c22.426-5.921,20.084,30.497,6,33
	C375.54,150.458,372.441,118.372,389,114z M392,135c5.521,0.854,7.355-1.978,8-6C397.009,120.457,384.769,128.368,392,135z" id="path-1" style="position: relative;"></path>
<path fill-rule="evenodd" clip-rule="evenodd" d="M433,116c9.172-0.505,10.984,6.349,15,11C442.854,127.462,434.323,122.689,433,116
	z" id="path-2" style="position: relative;"></path>
<path fill-rule="evenodd" clip-rule="evenodd" fill="#FFFFFF" d="M427,127c23.517-3.761,21.51,33.794,3,35
	C410.591,163.265,406.558,130.269,427,127z M427,150c5.521,0.854,7.355-1.978,8-6C432.009,135.457,419.769,143.368,427,150z" id="path-3" style="position: relative;"></path>
<path fill-rule="evenodd" clip-rule="evenodd" fill="#FFFFFF" d="M375,132c1.973,19.746,28.016,20.989,34,4
	c5.845,3.243,1.722,9.085,3,14c4.444,17.088,26.899,17.143,34,2c4.251-1.749,11.255-0.745,17-1c-1.289,6.169-10.688,12.553-8,26
	c-6.397,9.452-10.754,20.612-19,27c-1.646,1.275-4.048-0.065-6,1c-3.391,1.85-4.878,7.836-8,10c-5.241,3.634-12.84,5.616-19,6
	C362.54,223.519,357.842,165.335,375,132z M393,161c1.619,1.114,4.617,5.96,7,3c-2.305-1.362-5.58-1.753-5-6
	c1.121-7.879,10.021-7.979,13-14C401.288,147.955,393.155,150.489,393,161z M428,172c-8.958,2.911-16.603,7.156-26,6
	c-12.527-1.541-15.412-13.198-22-17C383.651,179.244,414.25,186.346,428,172z M399,184c-4.911,1.878-6.511-1.038-10-3
	C389.298,185.656,397.331,189.241,399,184z" id="path-4" style="position: relative;"></path>
<path fill-rule="evenodd" clip-rule="evenodd" d="M408,144c-2.979,6.021-11.879,6.121-13,14c-0.58,4.247,2.695,4.638,5,6
	c-2.383,2.96-5.381-1.886-7-3C393.155,150.489,401.288,147.955,408,144z" id="path-5" style="position: relative;"></path>
<path fill-rule="evenodd" clip-rule="evenodd" d="M380,161c6.588,3.802,9.473,15.459,22,17c9.397,1.156,17.042-3.089,26-6
	C414.25,186.346,383.651,179.244,380,161z" id="path-6" style="position: relative;"></path>
<path fill-rule="evenodd" clip-rule="evenodd" d="M389,181c3.489,1.962,5.089,4.878,10,3C397.331,189.241,389.298,185.656,389,181z" id="path-7" style="position: relative;"></path>
<path fill-rule="evenodd" clip-rule="evenodd" fill="#FFFFFF" d="M435,207c4.529,4.138,7.71,9.623,17,9c1.859-2.141,2.034-5.966,6-6
	c9.175,23.646-26.793,37.99-39,19c3.149-0.483,2.264,3.069,6,2c-3.119-1.882-7.39-6.815-4-12c2.288,2.379,3.642,5.691,8,6
	c1.462-2.836-7.815-3.487-6-10c0.807-0.86,2.739-0.594,3-2c4.314,0.019,3.686,4.981,8,5c-0.485-4.515-6.885-3.115-5-10
	C430.182,206.849,432.535,206.868,435,207z" id="path-8" style="position: relative;"></path>
<path fill-rule="evenodd" clip-rule="evenodd" fill="#FFFFFF" d="M378,219c5.22,3.114,3.867,12.799,9,16
	c-4.297,2.37-10.067,3.266-12,8C370.07,235.791,375.739,225.303,378,219z" id="path-9" style="position: relative;"></path>
<path fill-rule="evenodd" clip-rule="evenodd" fill="#FFFFFF" d="M417,226c1.221,1.754-0.712,6.589,1,10
	c-1.932,2.917-5.068,0.826-7,2c4.982,5.628-4.603,8.667-7,13c-4.473-3.861-5.413-11.254-12-13
	C400.226,233.893,410.964,232.297,417,226z" id="path-10" style="position: relative;"></path>
<path fill-rule="evenodd" clip-rule="evenodd" fill="#FFFFFF" d="M421,237c5.491,2.176,9.536,5.797,17,6
	c-0.458,3.542-2.225,5.775-2,10c-8.741,0.741-13.494-2.506-20-4C417.477,244.81,420.622,242.289,421,237z" id="path-11" style="position: relative;"></path>
<path fill-rule="evenodd" clip-rule="evenodd" fill="#FFFFFF" d="M415,251c6.296,2.037,12.596,4.071,20,5
	c-1.815,11.911-8.122,24.464-5,38c8.846-15.154,4.837-43.162,20-52c16.787,24.883-18.441,93.182-45,57
	C403.469,278.136,409.496,264.829,415,251z" id="path-12" style="position: relative;"></path>
<path fill-rule="evenodd" clip-rule="evenodd" fill="#FFFFFF" d="M399,249c1.483,0.85,2.15,2.517,2,5c4.909,0.909,3.809-4.191,8-4
	c-1.064,4.269-2.161,8.506-7,9c2.359,4.51,0.041,12.891-5,10c2.733,4.042,3.99,9.232,0,13c3.464,5.823,3.384,14.838,1,22
	c1,1.666,4.625,0.708,5,3c0.649,3.649-0.674,5.326-2,7c2.156,1.844,4.925,3.075,7,5c-0.011,2.656,0.378,5.711-1,7
	c7.134-0.467,6.254,7.079,11,9c-1.547,4.12-0.997,10.336-3,14c-14.469-0.197-28.474-0.859-40-4c0-2.333,0-4.667,0-7
	c1.615-0.282,1.722,0.945,3,1c3.082-7.251,7.288-13.379,11-20C390.1,295.237,384.025,265.029,399,249z" id="path-13" style="position: relative;"></path>
<path fill-rule="evenodd" clip-rule="evenodd" fill="#FFFFFF" d="M401,290c2.991,0.114,0.843,3.31,2,7
	C401.638,294.303,399.478,293.118,401,290z" id="path-14" style="position: relative;"></path>
<path fill-rule="evenodd" clip-rule="evenodd" fill="#FFFFFF" d="M243,321c1.925,1.704,4.701,6.46,1,8
	C241.745,328.255,243.609,323.391,243,321z" id="path-15" style="position: relative;"></path>
<path fill-rule="evenodd" clip-rule="evenodd" fill="#FFFFFF" d="M289,339c-2.714,0.619-7.937-1.27-9,1
	c-2.957-3.377-3.143-9.524-4-15C286.999,318.664,285.287,332.6,289,339z" id="path-16" style="position: relative;"></path>
<path fill-rule="evenodd" clip-rule="evenodd" fill="#FFFFFF" d="M249,329c-2.821,5.349-1.763,3.894-1,11
	C242.835,339.384,240.285,327.11,249,329z" id="path-17" style="position: relative;"></path>
<path fill-rule="evenodd" clip-rule="evenodd" fill="#FFFFFF" d="M244,340c3.875,3.791,12.637,2.696,16,7
	C252.922,346.412,244.493,347.174,244,340z" id="path-18" style="position: relative;"></path>
<path fill-rule="evenodd" clip-rule="evenodd" fill="#FFFFFF" d="M262,341c1.657,4.362,10.144,10.951,4,14
	C264.757,350.243,261.474,347.526,262,341z" id="path-19" style="position: relative;"></path>
<path fill-rule="evenodd" clip-rule="evenodd" fill="#FFFFFF" d="M427,342c5.433,2.284,1.575,7.708,8,9
	c-0.956,3.104-8.276-0.872-8,1C425.204,350.781,428.124,345.857,427,342z" id="path-20" style="position: relative;"></path>
<path fill-rule="evenodd" clip-rule="evenodd" fill="#FFFFFF" d="M341,349c-17.266,4.393-37.384,10.892-58,8
	c-3.59-0.504-12.305,2.691-12-4C280.755,337.878,319.172,348.934,341,349z" id="path-21" style="position: relative;"></path>
<path fill-rule="evenodd" clip-rule="evenodd" fill="#FFFFFF" d="M247,348c2.844-1.722,10.371,3.203,15,0
	C260.339,353.907,249.628,350.238,247,348z" id="path-22" style="position: relative;"></path>
<path fill-rule="evenodd" clip-rule="evenodd" fill="#FFFFFF" d="M257,354c-2.735,2.992-6.607-1.335-11,0
	C245.985,351.879,253.856,352.181,257,354z" id="path-23" style="position: relative;"></path>
<path fill-rule="evenodd" clip-rule="evenodd" d="M327,378c1.333,0,2.667,0,4,0c-0.489,3.156,1.802,3.531,1,7
	c2.591-2.076,2.107-7.227,8-6c-0.059,4.608-0.462,8.871-2,12c-5.036-0.032-0.991-2.94-2-7c-2.477,1.523-1.787,6.213-6,6
	c-1.378-1.289-0.989-4.344-1-7c-2.192,1.808-0.505,7.495-5,7C324.144,385.144,325.577,381.577,327,378z" id="path-24" style="position: relative;"></path>
<path fill-rule="evenodd" clip-rule="evenodd" d="M353,383c3.432,1.707,6.461-1.364,9,2c-0.861,3.139,0.34,8.34-5,7
	c-0.022-2.355,1.723-2.944,1-6c-5.208-0.875-0.772,7.895-7,6C351.552,388.886,351.816,385.483,353,383z" id="path-25" style="position: relative;"></path>
<path fill-rule="evenodd" clip-rule="evenodd" fill="#FFFFFF" d="M433,384c1.598,1.402,2.555,3.445,3,6c-1.333,0-2.667,0-4,0
	C431.978,387.645,433.723,387.056,433,384z" id="path-26" style="position: relative;"></path>
<path fill-rule="evenodd" clip-rule="evenodd" d="M384,385c1.204,8.068-3.508,14.89-11,11c0.804-4.1,4.116,0.52,6-2
	c-1.395-1.606-4.936-1.064-6-3C372.901,384.085,379.94,385.366,384,385z M377,391c1,0,2,0,3,0c-0.228-1.772,1.008-5.008-2-4
	C377.686,388.353,376.576,388.91,377,391z" id="path-27" style="position: relative;"></path>
<path fill-rule="evenodd" clip-rule="evenodd" d="M397,386c1.182,1.151,3.535,1.132,6,1c-0.967,3.366-4.105,4.562-5,8
	C393.367,394.65,397.466,388.549,397,386z" id="path-28" style="position: relative;"></path>
<path fill-rule="evenodd" clip-rule="evenodd" fill="#FFFFFF" d="M378,387c3.008-1.008,1.772,2.228,2,4c-1,0-2,0-3,0
	C376.576,388.91,377.686,388.353,378,387z" id="path-29" style="position: relative;"></path>
<path fill-rule="evenodd" clip-rule="evenodd" fill="#FFFFFF" d="M437,391c1.447,1.553,1.334,4.666,3,6
	c-1.387,2.28-6.961,0.373-10,1C430.276,393.609,431.078,389.745,437,391z" id="path-30" style="position: relative;"></path>
<path fill-rule="evenodd" clip-rule="evenodd" fill="#FFFFFF" d="M393,90c18.635,10.698,42.913,15.753,67,21
	c-4.167,14.471,5.679,21.278,3,34c-5.451-0.215-12.022,0.689-16-1c1.204-17.583-21.219-24.829-32-13c-1.008-2.326-3.442-3.225-7-3
	c0.95-13.463-17.005-22.467-25-12C383.38,108.371,390.237,98.577,393,90z M390,107c6.156-1.202,12.845,3.727,15-2
	C402.501,101.092,390.672,102.68,390,107z M448,127c-4.016-4.651-5.828-11.505-15-11C434.323,122.689,442.854,127.462,448,127z" id="path-31" style="position: relative;"></path>
<path fill-rule="evenodd" clip-rule="evenodd" d="M400,129c-0.645,4.022-2.479,6.854-8,6C384.769,128.368,397.009,120.457,400,129z" id="path-32" style="position: relative;"></path>
<path fill-rule="evenodd" clip-rule="evenodd" fill="#FFFFFF" d="M382,219c0.078-1.515,6.928,1.209,4,3c0.954-0.49,4.47-1.217,8,0
	c0.856,0.295-3.868,1.721-4,1c0.753,4.123,7.81-0.209,5,0c8.697-0.647,20.977-0.833,24-5c-0.803,10.87-18.308,13.688-29,18
	C385.52,232.147,384.606,224.727,382,219z" id="path-33" style="position: relative;"></path>
<path fill-rule="evenodd" clip-rule="evenodd" d="M450,238c16.893,21.848-3.391,69.621-23,81c0.618,7.284-1.743,11.591-1,19
	c3.279,4.721,7.494,8.506,10,14c27.021,2.312,55.074,3.592,82,6c4.839,18.604-11.968,22.653-23,30
	c-18.325,12.203-29.708,19.836-48,32c-7.286,4.846-17.404,14.651-24,16c-12.754,2.607-42.354-3.912-56-5
	c-124.962-9.966-266.338-25.838-387-36c0-5,0-10,0-15c26.336-5.96,54.155-13.336,81-20c8.043-1.996,18.987-1.522,24-9
	c-3.346-6.158-14.126-4.628-22-5c-13.57-0.642-29.33,0.082-43-2c-5.1-62.233-8.875-125.791-14-188c74.217-2.783,149.676-4.324,226-5
	c4.285,48.714,6.665,99.336,9,150c4.081,3.76,11.104,12.194,11,20c29.32,7.464,51.699-9.271,75-19c13.338-21.746,14.774-52.27,33-69
	c3.273-3.004,8.915-3.334,12-6c3.685-3.185,2.265-8.946,8-10c-10.984-11.886-16.679-23.219-17-40c-0.362-18.963,10.668-35.37,13-50
	c0.474-2.974-0.065-5.063-1-8c7.665-7.668,11.591-19.076,17-29c-12.695-8.047-9.091-27.888,9-29c16.108-0.99,31.987,7.95,48,16
	c13.223,6.648,35.019,15.615,41,23c12.224,15.09,2.15,34.962-8,49c10.581,23.945-13.407,43.378-24,59
	C466.578,217.545,456.225,231.298,450,238z M383,116c7.995-10.467,25.95-1.463,25,12c3.558-0.225,5.992,0.674,7,3
	c10.781-11.829,33.204-4.583,32,13c3.978,1.689,10.549,0.785,16,1c2.679-12.722-7.167-19.529-3-34
	c-24.087-5.247-48.365-10.302-67-21C390.237,98.577,383.38,108.371,383,116z M395,147c14.084-2.503,16.426-38.921-6-33
	C372.441,118.372,375.54,150.458,395,147z M430,162c18.51-1.206,20.517-38.761-3-35C406.558,130.269,410.591,163.265,430,162z
	 M403,221c6.16-0.384,13.759-2.366,19-6c3.122-2.164,4.609-8.15,8-10c1.952-1.065,4.354,0.275,6-1c8.246-6.388,12.603-17.548,19-27
	c-2.688-13.447,6.711-19.831,8-26c-5.745,0.255-12.749-0.749-17,1c-7.101,15.143-29.556,15.088-34-2c-1.278-4.915,2.845-10.757-3-14
	c-5.984,16.989-32.027,15.746-34-4C357.842,165.335,362.54,223.519,403,221z M429,208c-1.885,6.885,4.515,5.485,5,10
	c-4.314-0.019-3.686-4.981-8-5c-0.261,1.406-2.193,1.14-3,2c-1.815,6.513,7.462,7.164,6,10c-4.358-0.309-5.712-3.621-8-6
	c-3.39,5.185,0.881,10.118,4,12c-3.736,1.069-2.851-2.483-6-2c12.207,18.99,48.175,4.646,39-19c-3.966,0.034-4.141,3.859-6,6
	c-9.29,0.623-12.471-4.862-17-9C432.535,206.868,430.182,206.849,429,208z M390,236c10.692-4.312,28.197-7.13,29-18
	c-3.023,4.167-15.303,4.353-24,5c2.81-0.209-4.247,4.123-5,0c0.132,0.721,4.856-0.705,4-1c-3.53-1.217-7.046-0.49-8,0
	c2.928-1.791-3.922-4.515-4-3C384.606,224.727,385.52,232.147,390,236z M375,243c1.933-4.734,7.703-5.63,12-8
	c-5.133-3.201-3.78-12.886-9-16C375.739,225.303,370.07,235.791,375,243z M392,238c6.587,1.746,7.527,9.139,12,13
	c2.397-4.333,11.982-7.372,7-13c1.932-1.174,5.068,0.917,7-2c-1.712-3.411,0.221-8.246-1-10
	C410.964,232.297,400.226,233.893,392,238z M371,340c-19.57-27.547,3.423-64.765,11-92c-5.455-0.47-5.66-1.903-10-3
	c-1.892-5.142,0.079-13.521-1-17c-25.831,13.836-28.598,50.735-43,76c-14.61,5.39-27.28,12.72-42,18c1.105,5.895,3.251,10.749,5,16
	c21.556-3.111,36.386-12.947,53-21c-1.043-7.184,6.657-10.591,8-18c2.074-11.447-3.976-25.691,3-36c-4.622,23.135,4.153,55.628,2,76
	c5.484,1.516,9.756,4.244,16,5C372.969,337.118,374.879,334.323,371,340z M416,249c6.506,1.494,11.259,4.741,20,4
	c-0.225-4.225,1.542-6.458,2-10c-7.464-0.203-11.509-3.824-17-6C420.622,242.289,417.477,244.81,416,249z M405,299
	c26.559,36.182,61.787-32.117,45-57c-15.163,8.838-11.154,36.846-20,52c-3.122-13.536,3.185-26.089,5-38
	c-7.404-0.929-13.704-2.963-20-5C409.496,264.829,403.469,278.136,405,299z M410,248c2.421,5.396-1.621,10.354-5,13
	c2.329,3.047-1.671,8.291-4,10c2.192,7.234-2.474,11.838,2,18c-0.665-19.001,9.407-32.589,12-45
	C414.271,246.271,411.991,246.991,410,248z M389,319c-3.712,6.621-7.918,12.749-11,20c-1.278-0.055-1.385-1.282-3-1
	c0,2.333,0,4.667,0,7c11.526,3.141,25.531,3.803,40,4c2.003-3.664,1.453-9.88,3-14c-4.746-1.921-3.866-9.467-11-9
	c1.378-1.289,0.989-4.344,1-7c-2.075-1.925-4.844-3.156-7-5c1.326-1.674,2.649-3.351,2-7c-0.375-2.292-4-1.334-5-3
	c2.384-7.162,2.464-16.177-1-22c3.99-3.768,2.733-8.958,0-13c5.041,2.891,7.359-5.49,5-10c4.839-0.494,5.936-4.731,7-9
	c-4.191-0.191-3.091,4.909-8,4c0.15-2.483-0.517-4.15-2-5C384.025,265.029,390.1,295.237,389,319z M403,297
	c-1.157-3.69,0.991-6.886-2-7C399.478,293.118,401.638,294.303,403,297z M404,314c4.616,1.051,6.505,4.828,6,11
	c5.474-0.14,6.14,4.526,8,8c1.045-6.797-2.622-11.646-1-16c-8.718-1.615-9.833-10.833-15-16
	C403.232,305.004,406.928,308.783,404,314z M297,343c20.799,0.534,40.483,2.184,60,4c-5.082-8.762,3.438-22.383-4-33
	C341.92,331.253,317.12,334.786,297,343z M244,329c3.701-1.54,0.925-6.296-1-8C243.609,323.391,241.745,328.255,244,329z M268,349
	c16.503,0.387,5.891-13.6,6-24c-6.71-0.956-12.524-2.809-21-2c-1.539,4.794-3.7,8.967-3,16c2.919,1.081,5.762,2.238,10,2
	c1.734-5.734-4.23-3.77-4-8c2.081-0.586,3.232-2.102,5-3c-0.954,6.287,6.342,4.325,8,8c-4.769,2.035-6.588-3.988-8-2
	C263.526,340.141,266.551,343.782,268,349z M276,325c0.857,5.476,1.043,11.623,4,15c1.063-2.27,6.286-0.381,9-1
	C285.287,332.6,286.999,318.664,276,325z M248,340c-0.763-7.106-1.821-5.651,1-11C240.285,327.11,242.835,339.384,248,340z M260,347
	c-3.363-4.304-12.125-3.209-16-7C244.493,347.174,252.922,346.412,260,347z M266,355c6.144-3.049-2.343-9.638-4-14
	C261.474,347.526,264.757,350.243,266,355z M427,352c-0.276-1.872,7.044,2.104,8-1c-6.425-1.292-2.567-6.716-8-9
	C428.124,345.857,425.204,350.781,427,352z M271,353c-0.305,6.691,8.41,3.496,12,4c20.616,2.892,40.734-3.607,58-8
	C319.172,348.934,280.755,337.878,271,353z M262,348c-4.629,3.203-12.156-1.722-15,0C249.628,350.238,260.339,353.907,262,348z
	 M246,354c4.393-1.335,8.265,2.992,11,0C253.856,352.181,245.985,351.879,246,354z M307,374c-0.499,6.501-3.013,10.987-4,17
	c41.464,5.079,86.417,8.384,123,13c2.363-6.637,3.866-14.134,6-21C389.576,380.758,348.773,376.893,307,374z M432,390
	c1.333,0,2.667,0,4,0c-0.445-2.555-1.402-4.598-3-6C433.723,387.056,431.978,387.645,432,390z M430,398c3.039-0.627,8.613,1.28,10-1
	c-1.666-1.334-1.553-4.447-3-6C431.078,389.745,430.276,393.609,430,398z" id="path-34" style="position: relative;"></path>
<path fill-rule="evenodd" clip-rule="evenodd" fill="#FFFFFF" d="M373,344c-6.244-0.756-10.516-3.484-16-5
	c2.153-20.372-6.622-52.865-2-76c-6.976,10.309-0.926,24.553-3,36c-1.343,7.409-9.043,10.816-8,18
	c-16.614,8.053-31.444,17.889-53,21c-1.749-5.251-3.895-10.105-5-16c14.72-5.28,27.39-12.61,42-18
	c14.402-25.265,17.169-62.164,43-76c1.079,3.479-0.892,11.858,1,17c4.34,1.097,4.545,2.53,10,3c-7.577,27.235-30.57,64.453-11,92
	C374.879,334.323,372.969,337.118,373,344z" id="path-35" style="position: relative;"></path>
<path fill-rule="evenodd" clip-rule="evenodd" fill="#FFFFFF" d="M415,244c-2.593,12.411-12.665,25.999-12,45
	c-4.474-6.162,0.192-10.766-2-18c2.329-1.709,6.329-6.953,4-10c3.379-2.646,7.421-7.604,5-13
	C411.991,246.991,414.271,246.271,415,244z" id="path-36" style="position: relative;"></path>
<path fill-rule="evenodd" clip-rule="evenodd" fill="#FFFFFF" d="M402,301c5.167,5.167,6.282,14.385,15,16
	c-1.622,4.354,2.045,9.203,1,16c-1.86-3.474-2.526-8.14-8-8c0.505-6.172-1.384-9.949-6-11C406.928,308.783,403.232,305.004,402,301z
	" id="path-37" style="position: relative;"></path>
<path fill-rule="evenodd" clip-rule="evenodd" fill="#FFFFFF" d="M261,336c1.412-1.988,3.231,4.035,8,2
	c-1.658-3.675-8.954-1.713-8-8c-1.768,0.898-2.919,2.414-5,3c-0.23,4.23,5.734,2.266,4,8c-4.238,0.238-7.081-0.919-10-2
	c-0.7-7.033,1.461-11.206,3-16c8.476-0.809,14.29,1.044,21,2c-0.109,10.4,10.503,24.387-6,24
	C266.551,343.782,263.526,340.141,261,336z" id="path-38" style="position: relative;"></path>
<path fill-rule="evenodd" clip-rule="evenodd" fill="#FFFFFF" d="M432,383c-2.134,6.866-3.637,14.363-6,21
	c-36.583-4.616-81.536-7.921-123-13c0.987-6.013,3.501-10.499,4-17C348.773,376.893,389.576,380.758,432,383z M395,391
	c0.924-7.959-12.544-5.879-10,2c1.752,0.331,7.694,4.589,8,0c0.716-2.716-4.716,0.716-4-2C392.458,390.188,393.222,392.867,395,391z
	 M324,390c4.495,0.495,2.808-5.192,5-7c0.011,2.656-0.378,5.711,1,7c4.213,0.213,3.523-4.477,6-6c1.009,4.06-3.036,6.968,2,7
	c1.538-3.129,1.941-7.392,2-12c-5.893-1.227-5.409,3.924-8,6c0.802-3.469-1.489-3.844-1-7c-1.333,0-2.667,0-4,0
	C325.577,381.577,324.144,385.144,324,390z M342,383c3.911,4.225-2.142,1.701-2,7c1.659,1.675,5.871,0.796,9,1
	c0.319-2.348,1.58-3.754,1-7C348.047,382.829,344.403,380.715,342,383z M351,392c6.228,1.895,1.792-6.875,7-6
	c0.723,3.056-1.022,3.645-1,6c5.34,1.34,4.139-3.861,5-7c-2.539-3.364-5.568-0.293-9-2C351.816,385.483,351.552,388.886,351,392z
	 M364,386c1.453,0.547,5.169-1.169,5,1c-4.158-0.492-6.147,1.186-7,4c2.918,2.985,4.917,0.944,9,2c1.546-1.454,0.881-5.119,1-8
	C369.8,384.395,364.548,382.487,364,386z M373,391c1.064,1.936,4.605,1.394,6,3c-1.884,2.52-5.196-2.1-6,2
	c7.492,3.89,12.204-2.932,11-11C379.94,385.366,372.901,384.085,373,391z M398,395c0.895-3.438,4.033-4.634,5-8
	c-2.465,0.132-4.818,0.151-6-1C397.466,388.549,393.367,394.65,398,395z" id="path-39" style="position: relative;"></path>
<path fill-rule="evenodd" clip-rule="evenodd" d="M435,144c-0.645,4.022-2.479,6.854-8,6C419.769,143.368,432.009,135.457,435,144z" id="path-40" style="position: relative;"></path>
<path fill-rule="evenodd" clip-rule="evenodd" d="M350,384c0.58,3.246-0.681,4.652-1,7c-3.129-0.204-7.341,0.675-9-1
	c-0.142-5.299,5.911-2.775,2-7C344.403,380.715,348.047,382.829,350,384z" id="path-41" style="position: relative;"></path>
<path fill-rule="evenodd" clip-rule="evenodd" d="M389,391c-0.716,2.716,4.716-0.716,4,2c-0.306,4.589-6.248,0.331-8,0
	c-2.544-7.879,10.924-9.959,10-2C393.222,392.867,392.458,390.188,389,391z" id="path-42" style="position: relative;"></path>
<path fill-rule="evenodd" clip-rule="evenodd" d="M372,385c-0.119,2.881,0.546,6.546-1,8c-4.083-1.056-6.082,0.985-9-2
	c0.853-2.814,2.842-4.492,7-4c0.169-2.169-3.547-0.453-5-1C364.548,382.487,369.8,384.395,372,385z" id="path-43" style="position: relative;"></path>
</svg>
